# xmcd CD database file
#
# Track frame offsets:
#	150
#	17114
#	31059
#	45791
#	62324
#	74986
#	94326
#	112695
#	127751
#	138837
#	152560
#	163677
#	178664
#	192403
#	203177
#	214474
#	223477
#	235503
#	243608
#	253488
#
# Disc length: 3544 seconds
#
# Revision: 0
# Processed by: cddbd v1.5.2PL0 Copyright (c) Steve Scherf et al.
# Submitted via: CDex 1.70beta2
#
DISCID=210dd614
DTITLE=Dancehouse - Ballroom Nights 1 CD2
DYEAR=1900
DGENRE=Ballroom
TTITLE0=Fever (SF 29)
TTITLE1=All Or Nothing At All (SF 29)
TTITLE2=I Thought About You (SF 28)
TTITLE3=Come Blow Your Horn (SF 29)
TTITLE4=Don't It Make My Brown Eyes Blue (SF 29)
TTITLE5=Misunderstood (SF 29)
TTITLE6=Rendezvous (SF 29)
TTITLE7=Vincent (SF 29)
TTITLE8=Andare, In Ogni Senso (SF 29)
TTITLE9=New York, New York (SF 29)
TTITLE10=Theme from Monk (QU 50)
TTITLE11=Drumming Man (QU 50)
TTITLE12=I Get A Kick Out Of You (QU 50)
TTITLE13=I Am What I Am (QU 50)
TTITLE14=Relax Ay Voo (QU 50)
TTITLE15=Roue 66 (QU 50)
TTITLE16=A Little Girl From Little Rock (QU 50)
TTITLE17=Chicago (QU 50)
TTITLE18=Sing, Sing, Sing (QU 50)
TTITLE19=Sweet Sweet Smile (QU 50)
EXTD=
EXTT0=
EXTT1=
EXTT2=
EXTT3=
EXTT4=
EXTT5=
EXTT6=
EXTT7=
EXTT8=
EXTT9=
EXTT10=
EXTT11=
EXTT12=
EXTT13=
EXTT14=
EXTT15=
EXTT16=
EXTT17=
EXTT18=
EXTT19=
PLAYORDER=
